<svg viewBox="260 290 520 520" xmlns="http://www.w3.org/2000/svg">
<g transform="translate(104, 110) scale(0.8)">
<path fill="#FFFFFF" d="M386.958374,721.191406 C371.361328,720.514221 357.084412,724.177856 343.121765,729.487915 C331.884186,733.761658 320.389801,737.080872 308.453156,738.724304 C306.929291,738.934143 305.270752,739.910156 303.346802,737.653320 C310.570435,734.263977 317.540344,730.920288 324.111877,726.873657 C358.718170,705.563843 396.997589,692.707031 434.771454,678.660461 C459.859894,669.331177 483.890381,657.964111 504.885773,640.972290 C514.276550,633.372192 522.150146,624.392761 528.744507,614.198120 C526.290649,616.919556 523.922180,619.724121 521.369141,622.349121 C504.015381,640.192200 483.220367,652.819275 460.520325,662.629272 C441.068054,671.035706 420.817291,677.169861 400.769989,683.862915 C368.768860,694.546875 339.120636,709.763000 311.361938,728.855713 C304.084534,733.861206 296.360168,738.183411 287.377228,739.551697 C284.478027,739.993286 281.448364,740.262756 279.534393,737.760620 C277.590485,735.219360 279.399689,732.563843 280.693604,730.329834 C292.887573,709.276062 304.712036,688.041199 314.496490,665.720703 C322.787842,646.806396 331.001556,627.849121 339.766022,609.152954 C363.443420,558.644958 401.763519,523.676941 453.413788,503.038513 C465.335754,498.274719 477.476868,494.132294 489.855438,490.802277 C511.521973,484.973694 528.201965,472.289520 542.022949,454.964630 C554.686707,439.090363 567.366028,423.136322 583.656555,410.629761 C587.229248,407.886963 590.873413,405.187744 595.055420,403.467133 C608.749695,397.832764 622.337097,391.956085 635.935669,386.097504 C645.441284,382.002228 655.537903,381.050690 665.710876,384.511963 C668.679810,385.522125 670.552185,387.193146 671.384216,390.205811 C672.225281,393.251587 673.897095,396.223206 674.029358,399.278168 C674.332275,406.274628 678.333008,410.438049 683.576477,414.096375 C686.851135,416.381104 690.016174,418.868561 692.564758,421.995361 C695.856201,426.033508 698.386902,430.419952 698.630981,436.362488 C691.216553,434.879425 684.085022,433.647827 676.837891,433.271027 C673.633057,433.104431 671.245544,433.737244 669.101196,436.515137 C665.219299,441.543732 660.122620,445.451080 655.196594,449.398804 C645.122253,457.472382 643.363342,467.707245 646.550903,479.477570 C646.977661,481.053345 647.871643,482.549927 647.209473,485.155334 C630.275269,482.562958 617.231140,474.025269 608.124146,459.753204 C598.741150,445.048553 598.822937,429.471283 605.805115,413.465637 C598.730042,420.736572 593.570435,428.740173 593.400879,438.782349 C593.075134,458.068604 602.821899,471.916901 618.250183,482.274750 C623.508362,485.804840 629.192810,488.722321 635.482239,489.983459 C638.854736,490.659698 639.975525,493.020599 640.957153,495.752075 C646.334045,510.713348 649.843445,526.131348 651.162964,541.942383 C655.623657,595.392090 637.000366,640.251343 599.593018,677.791626 C590.546082,686.870728 580.480347,694.877197 568.923218,701.805054 C593.388916,695.894714 633.087036,649.006897 646.205811,611.639404 C660.218567,571.725586 657.737183,532.171631 643.985779,492.664856 C648.702881,490.640747 651.130920,492.104187 652.627625,496.412201 C661.092896,520.777649 664.852539,545.668884 662.503357,571.520020 C659.514832,604.407104 648.136292,634.042053 628.578369,660.427734 C600.555542,698.233643 563.022644,721.363708 516.918152,730.238586 C481.606995,737.035706 446.672516,733.572266 412.063995,724.836670 C404.005249,722.802490 395.874084,720.906677 386.958374,721.191406 M638.884521,409.374786 C640.700256,405.522614 638.832458,402.830597 635.760376,401.002838 C632.940369,399.325043 629.916809,399.685120 627.533813,402.146240 C625.520569,404.225494 624.631042,406.626740 626.523743,409.331635 C628.577332,412.266418 631.437073,413.196838 634.835449,412.489746 C636.336548,412.177429 637.516541,411.194397 638.884521,409.374786z"/>
<path fill="#FFFFFF" d="M726.341797,354.020874 C720.488525,352.204315 715.733643,349.079987 710.775208,346.364471 C706.432312,343.985992 701.767029,342.397064 696.869080,343.514374 C680.165039,347.324707 668.872009,358.575439 658.633240,371.096466 C660.355286,374.800964 664.515259,375.868561 665.243042,380.149597 C661.457764,379.498535 658.102112,378.728058 654.703186,378.376984 C647.643127,377.647766 640.658875,378.681580 634.007690,380.847107 C612.260742,387.927582 590.894043,395.918457 573.156128,411.071289 C560.418274,421.952728 550.094971,435.034698 539.845642,448.171082 C538.918457,449.359436 538.580750,451.343994 535.984436,451.210754 C536.397888,447.878632 538.490295,445.378113 539.747986,442.612610 C549.881409,420.330780 562.891785,400.156708 583.470764,386.005066 C602.660339,372.808960 623.490417,364.913513 647.317017,368.337036 C650.666321,368.818268 651.691895,366.595947 653.074402,364.598785 C661.471436,352.468414 671.260193,341.621338 682.909729,332.541321 C692.660706,324.940979 703.465027,319.508331 715.933960,318.280029 C724.699036,317.416626 732.834595,319.593201 739.773743,325.182220 C743.767090,328.398621 746.592896,332.593750 747.230469,337.783112 C748.751404,350.161957 740.069336,357.022614 726.341797,354.020874z"/>
</g>
</svg>